# xmcd
#
# Track frame offsets:
#	150
#	11357
#	24351
#	45439
#	61083
#	74282
#	88408
#	108139
#	127098
#	137167
#	151418
#	165643
#	183667
#	200225
#	218235
#	232497
#	244074
#	256413
#	267648
#
# Disc length: 3802 seconds
#
# Revision: 0
# Processed by: cddbd v1.5.2PL0 Copyright (c) Steve Scherf et al.
# Submitted via: audiograbber 1.83.01
#
DISCID=1c0ed813
DTITLE=Laurels - An R and B Odyssey
DYEAR=1900
DGENRE=
TTITLE0=Don't Just Stand There - 1958
TTITLE1=Lonely Summer - 1983
TTITLE2=You're Driving Me Crazy - 1997
TTITLE3=Somewhere Over the Rainbow (Accapella) - 1997
TTITLE4=Sugar, Sugar - 1997
TTITLE5=Watcha Gonna Do - 1997
TTITLE6=Lovely Way To Spend An Evening - 1997
TTITLE7=The Beating Of My Heart - 1997
TTITLE8=Rocket '69 - 1997
TTITLE9=So Far Away (Acappella) -1997
TTITLE10=Letter Full Of Tears - 1995
TTITLE11=Sticky By Me - 1997
TTITLE12=Just Across The Street (Acappella) - 1997
TTITLE13=For Your Love - 1997
TTITLE14=Been So Long (Acappella) - 1995
TTITLE15=Geraldine '97 - 1997
TTITLE16=Don't Just Stand There (Acappella) - 1995
TTITLE17=Bull Fight - Instrumental - The Condor Band - Bonus Track - 1958
TTITLE18=Dedicated To The One I Love - 1997
EXTD=
EXTT0=
EXTT1=
EXTT2=
EXTT3=
EXTT4=
EXTT5=
EXTT6=
EXTT7=
EXTT8=
EXTT9=
EXTT10=
EXTT11=
EXTT12=
EXTT13=
EXTT14=
EXTT15=
EXTT16=
EXTT17=
EXTT18=
PLAYORDER=
